<svg width="324" height="267" viewBox="0 0 324 267" fill="none" xmlns="http://www.w3.org/2000/svg">
<path d="M78.8728 7.22022C80.6513 5.90976 81.0307 3.40568 79.7202 1.6272C78.4098 -0.151277 75.9057 -0.530683 74.1272 0.779777L78.8728 7.22022ZM323.591 232.261C324.564 230.278 323.745 227.881 321.761 226.909L289.438 211.058C287.455 210.085 285.059 210.905 284.086 212.888C283.113 214.872 283.933 217.268 285.916 218.241L314.647 232.33L300.558 261.062C299.585 263.045 300.405 265.441 302.388 266.414C304.372 267.387 306.768 266.567 307.741 264.584L323.591 232.261ZM74.1272 0.779777C21.4429 39.5998 -0.396662 77.4041 0.579737 111.926C1.5553 146.418 25.2603 175.905 59.5685 198.228C93.9678 220.61 139.736 236.301 186.599 243.084C233.453 249.865 281.782 247.795 321.294 234.285L318.706 226.715C280.718 239.705 233.734 241.822 187.745 235.166C141.764 228.511 97.1573 213.14 63.9315 191.522C30.6147 169.845 9.44472 142.395 8.57654 111.699C7.70919 81.0334 27.0571 45.4002 78.8728 7.22022L74.1272 0.779777Z" fill="black"/>
</svg>
