<svg width="295" height="275" viewBox="0 0 295 275" fill="none" xmlns="http://www.w3.org/2000/svg">
<path d="M152.385 3.04651C151.858 0.901052 149.692 -0.411293 147.547 0.115305C145.401 0.641903 144.089 2.80803 144.616 4.95349L152.385 3.04651ZM6.00031 114L2.10274 114.899L6.00031 114ZM42.367 274.011C44.0298 275.465 46.5569 275.296 48.0112 273.633L71.7117 246.536C73.166 244.873 72.997 242.346 71.3342 240.891C69.6713 239.437 67.1443 239.606 65.6899 241.269L44.6229 265.356L20.536 244.289C18.8731 242.834 16.3461 243.003 14.8917 244.666C13.4374 246.329 13.6064 248.856 15.2692 250.31L42.367 274.011ZM144.616 4.95349C146.036 10.7386 144.945 14.9814 142.251 18.4938C139.386 22.2285 134.44 25.4762 127.531 28.4003C113.624 34.2857 94.0761 37.9893 73.7944 42.9206C53.9293 47.7505 33.4494 53.7551 19.2419 64.429C12.0499 69.8322 6.32098 76.5318 3.13531 84.994C-0.0531988 93.4637 -0.562392 103.35 2.10274 114.899L9.89788 113.101C7.51422 102.771 8.09342 94.5302 10.6223 87.8125C13.1541 81.0873 17.7717 75.5396 24.0471 70.825C36.7744 61.2632 55.7127 55.5499 75.6845 50.6941C95.2396 45.9395 115.947 41.9895 130.649 35.7677C138.044 32.6382 144.49 28.7189 148.599 23.3625C152.878 17.7838 154.34 11.0114 152.385 3.04651L144.616 4.95349ZM2.10274 114.899C3.28862 120.038 5.60093 124.24 9.01744 127.447C12.4118 130.633 16.6754 132.632 21.4571 133.748C30.8806 135.948 42.9045 134.853 56.1938 132.047C82.8211 126.424 116.899 113.351 150.242 101.844C183.933 90.2167 216.84 80.1959 242.076 79.9608C254.641 79.8437 264.781 82.1678 272.117 87.4485C279.319 92.6331 284.383 101.079 286.03 114.488L293.97 113.512C292.117 98.4207 286.196 87.7263 276.791 80.9558C267.519 74.2814 255.429 71.836 242.002 71.9611C215.254 72.2103 181.13 82.7208 147.633 94.2813C113.789 105.961 80.5228 118.733 54.5409 124.219C41.5255 126.968 30.9283 127.744 23.2758 125.957C19.5194 125.08 16.6311 123.621 14.4926 121.614C12.3762 119.627 10.7745 116.899 9.89788 113.101L2.10274 114.899ZM286.03 114.488C287.685 127.968 285.112 137.56 279.849 144.654C274.515 151.844 266.031 156.995 254.871 160.756C232.337 168.351 201.015 169.67 168.48 172.389C136.424 175.068 103.303 179.119 78.8693 192.774C66.5369 199.666 56.3036 209.057 49.5419 222.001C42.7896 234.928 39.6597 251.088 41.0093 271.267L48.9915 270.733C47.716 251.662 50.7112 237.041 56.6327 225.706C62.5448 214.388 71.534 206.038 82.7719 199.757C105.478 187.068 136.889 183.057 169.146 180.361C200.923 177.705 233.694 176.336 257.426 168.337C269.399 164.302 279.59 158.43 286.274 149.42C293.029 140.315 295.815 128.532 293.97 113.512L286.03 114.488Z" fill="black"/>
</svg>
