<svg width="337" height="277" viewBox="0 0 337 277" fill="none" xmlns="http://www.w3.org/2000/svg">
<path d="M1.94415 245.423C0.244795 246.835 0.0114923 249.357 1.42305 251.056C2.83461 252.755 5.3565 252.989 7.05585 251.577L1.94415 245.423ZM132.48 1.83161C131.006 0.185865 128.477 0.0464082 126.832 1.52012L100.013 25.5357C98.367 27.0094 98.2275 29.5382 99.7012 31.1839C101.175 32.8297 103.704 32.9691 105.349 31.4954L129.189 10.1483L150.536 33.9873C152.009 35.633 154.538 35.7725 156.184 34.2988C157.83 32.8251 157.969 30.2963 156.495 28.6505L132.48 1.83161ZM7.05585 251.577C38.0097 225.865 69.3955 204.656 102.276 199.769C134.719 194.947 169.48 205.93 207.576 246.73L213.424 241.27C174.02 199.07 136.781 186.553 101.099 191.856C65.8545 197.094 32.9903 219.635 1.94415 245.423L7.05585 251.577ZM207.576 246.73C227.273 267.825 245.126 277.117 261.254 276.882C277.494 276.646 290.63 266.784 300.91 252.807C321.366 224.995 332.457 178.371 335.979 144.413L328.021 143.587C324.543 177.129 313.634 222.005 294.465 248.067C284.933 261.028 273.85 268.698 261.137 268.883C248.311 269.07 232.477 261.675 213.424 241.27L207.576 246.73ZM335.979 144.413C339.581 109.673 328.052 86.5904 309.216 76.824C290.551 67.1458 266.335 71.4345 246.447 87.9205L251.553 94.0795C269.665 79.0655 290.449 76.1042 305.534 83.926C320.448 91.6596 331.419 110.827 328.021 143.587L335.979 144.413ZM246.447 87.9205C237.356 95.4569 225.15 102.226 212.113 106.061C199.064 109.9 185.476 110.718 173.436 106.762C161.527 102.85 150.74 94.1457 143.291 78.1332C135.785 61.998 131.639 38.3493 133.494 4.72025L125.506 4.27975C123.611 38.6507 127.778 63.752 136.037 81.5075C144.354 99.3855 156.786 109.713 170.939 114.363C184.961 118.969 200.28 117.881 214.371 113.736C228.475 109.587 241.644 102.293 251.553 94.0795L246.447 87.9205Z" fill="black"/>
</svg>
