<svg width="28" height="28" viewBox="0 0 28 28" fill="none" xmlns="http://www.w3.org/2000/svg">
<path fill-rule="evenodd" clip-rule="evenodd" d="M17.793 1.743C20.116 -0.581 23.884 -0.581 26.207 1.743C28.531 4.066 28.531 7.833 26.207 10.157L10.414 25.95H27C27.552 25.95 28 26.397 28 26.95C28 27.502 27.552 27.95 27 27.95H1C0.448 27.95 0 27.502 0 26.95V19.95C0 19.685 0.10503 19.43 0.29303 19.243L17.793 1.743ZM7.586 25.95L21.086 12.45L15.5 6.86403L2 20.364V25.95H7.586ZM16.914 5.45003L22.5 11.036L24.793 8.743C26.335 7.2 26.335 4.699 24.793 3.157C23.25 1.614 20.75 1.614 19.207 3.157L16.914 5.45003Z" fill="black"/>
</svg>
