<svg width="30" height="30" viewBox="0 0 30 30" fill="none" xmlns="http://www.w3.org/2000/svg">
<path d="M22.075 28.3375C21.4125 28.3375 20.5625 28.125 19.5 27.5L15.7625 25.2875C15.375 25.0625 14.625 25.0625 14.25 25.2875L10.5 27.5C8.28752 28.8125 6.98752 28.2875 6.40002 27.8625C5.82503 27.4375 4.92502 26.35 5.51253 23.85L6.40002 20.0125C6.50002 19.6125 6.30003 18.925 6.00003 18.625L2.90003 15.525C1.35003 13.975 1.47503 12.65 1.68753 12C1.90003 11.35 2.57503 10.2 4.72503 9.83752L8.71252 9.17502C9.08752 9.11252 9.62502 8.71252 9.78753 8.37502L12 3.96252C13 1.95002 14.3125 1.65002 15 1.65002C15.6875 1.65002 17 1.95002 18 3.96252L20.2 8.36252C20.375 8.70002 20.9125 9.10002 21.2875 9.16252L25.275 9.82502C27.4375 10.1875 28.1125 11.3375 28.3125 11.9875C28.5125 12.6375 28.6375 13.9625 27.1 15.5125L24 18.625C23.7 18.925 23.5125 19.6 23.6 20.0125L24.4875 23.85C25.0625 26.35 24.175 27.4375 23.6 27.8625C23.2875 28.0875 22.7875 28.3375 22.075 28.3375ZM15 23.2375C15.6125 23.2375 16.225 23.3875 16.7125 23.675L20.45 25.8875C21.5375 26.5375 22.225 26.5375 22.4875 26.35C22.75 26.1625 22.9375 25.5 22.6625 24.275L21.775 20.4375C21.5375 19.4 21.925 18.0625 22.675 17.3L25.775 14.2C26.3875 13.5875 26.6625 12.9875 26.5375 12.575C26.4 12.1625 25.825 11.825 24.975 11.6875L20.9875 11.025C20.025 10.8625 18.975 10.0875 18.5375 9.21252L16.3375 4.81252C15.9375 4.01252 15.4375 3.53752 15 3.53752C14.5625 3.53752 14.0625 4.01252 13.675 4.81252L11.4625 9.21252C11.025 10.0875 9.97503 10.8625 9.01253 11.025L5.03753 11.6875C4.18753 11.825 3.61253 12.1625 3.47503 12.575C3.33753 12.9875 3.62503 13.6 4.23753 14.2L7.33752 17.3C8.08752 18.05 8.47503 19.4 8.23753 20.4375L7.35003 24.275C7.06253 25.5125 7.26253 26.1625 7.52503 26.35C7.78753 26.5375 8.46253 26.525 9.56252 25.8875L13.3 23.675C13.775 23.3875 14.3875 23.2375 15 23.2375Z" fill="white"/>
</svg>
