<svg width="35" height="35" viewBox="0 0 35 35" fill="none" xmlns="http://www.w3.org/2000/svg">
<path fill-rule="evenodd" clip-rule="evenodd" d="M15.6251 2.50001C8.37629 2.50001 2.50001 8.37629 2.50001 15.6251C2.50001 22.8738 8.37629 28.7501 15.6251 28.7501C19.2463 28.7501 22.5226 27.2851 24.8989 24.9126C27.2801 22.5351 28.7501 19.2526 28.7501 15.6251C28.7501 8.37629 22.8738 2.50001 15.6251 2.50001ZM0 15.6251C0 6.99503 6.99503 0 15.6251 0C24.2551 0 31.2501 6.99503 31.2501 15.6251C31.2501 19.4926 29.8439 23.0339 27.5164 25.7614L34.6326 32.8651C35.1214 33.3526 35.1227 34.1451 34.6352 34.6326C34.1477 35.1214 33.3552 35.1227 32.8677 34.6352L25.7476 27.5289C23.0214 29.8489 19.4863 31.2501 15.6251 31.2501C6.99503 31.2501 0 24.2551 0 15.6251Z" fill="black"/>
</svg>
